<?xml version="1.0" standalone="no"?><!DOCTYPE svg PUBLIC "-//W3C//DTD SVG 1.1//EN" "http://www.w3.org/Graphics/SVG/1.1/DTD/svg11.dtd"><svg t="1493627572883" class="icon" style="" viewBox="0 0 1024 1024" version="1.1" xmlns="http://www.w3.org/2000/svg" p-id="5301" xmlns:xlink="http://www.w3.org/1999/xlink" width="24" height="24"><defs><style type="text/css"></style></defs><path d="M0 1024l512 0 0-1024-512 0 0 1024zM320 128l128 0 0 128-128 0 0-128zM320 384l128 0 0 128-128 0 0-128zM320 640l128 0 0 128-128 0 0-128zM64 128l128 0 0 128-128 0 0-128zM64 384l128 0 0 128-128 0 0-128zM64 640l128 0 0 128-128 0 0-128zM576 320l448 0 0 64-448 0zM576 1024l128 0 0-256 192 0 0 256 128 0 0-576-448 0z" p-id="5302" fill="#34495e"></path></svg>