<?xml version="1.0" standalone="no"?><!DOCTYPE svg PUBLIC "-//W3C//DTD SVG 1.1//EN" "http://www.w3.org/Graphics/SVG/1.1/DTD/svg11.dtd"><svg t="1488947105769" class="icon" style="" viewBox="0 0 1024 1024" version="1.1" xmlns="http://www.w3.org/2000/svg" p-id="885" xmlns:xlink="http://www.w3.org/1999/xlink" width="32" height="32"><defs><style type="text/css"></style></defs><path d="M274.432 479.232l-1.024-3.072v-4.096l-1.024-2.048v-10.24l1.024-4.096 1.024-4.096 1.024-4.096 2.048-4.096 3.072-5.12 3.072-5.12v-6.144l1.024-5.12 1.024-4.096 2.048-6.144 1.024-2.048 1.024-2.048 1.024-3.072 2.048-2.048v-11.264l1.024-6.144 1.024-8.192 2.048-8.192 2.048-9.216 2.048-5.12 2.048-5.12 2.048-5.12 2.048-5.12 3.072-6.144 3.072-5.12 3.072-6.144 4.096-6.144 1.024-3.072 2.048-3.072 5.12-6.144 4.096-6.144 5.12-6.144 5.12-6.144 6.144-6.144 6.144-7.168 7.168-6.144 5.12-4.096 5.12-5.12 6.144-4.096 6.144-3.072 6.144-4.096 7.168-2.048 7.168-4.096 7.168-2.048 7.168-2.048 8.192-3.072 7.168-2.048 8.192-1.024 8.192-1.024 8.192-1.024 8.192-2.048h34.816l8.192 1.024 9.216 1.024 8.192 1.024 8.192 2.048 9.216 2.048 7.168 2.048 9.216 2.048 8.192 3.072 8.192 3.072 8.192 3.072 7.168 4.096 7.168 4.096 7.168 5.12 6.144 4.096 3.072 2.048 3.072 2.048 6.144 5.12 4.096 4.096 5.12 5.12 5.12 6.144 4.096 5.12 4.096 5.12 3.072 6.144 3.072 5.12 4.096 5.12 3.072 6.144 4.096 10.24 3.072 6.144 2.048 5.12 1.024 6.144 2.048 5.12 1.024 5.12 2.048 5.12 2.048 9.216 2.048 9.216 1.024 8.192 1.024 6.144 1.024 10.24 1.024 2.048 1.024 2.048 3.072 5.12 2.048 3.072 2.048 4.096 2.048 4.096 2.048 4.096 1.024 5.12 2.048 5.12 1.024 6.144v2.048l1.024 3.072v3.072l-1.024 3.072v3.072l-1.024 4.096-1.024 6.144-2.048 4.096-1.024 3.072v1.024l1.024 1.024 1.024 3.072 8.192 11.264 6.144 8.192 2.048 6.144 4.096 6.144 3.072 6.144 4.096 8.192 4.096 7.168 4.096 9.216 3.072 6.144 2.048 5.12 2.048 6.144 2.048 5.12 1.024 5.12 2.048 5.12 1.024 10.24 2.048 10.24 1.024 9.216v13.312l-1.024 4.096-1.024 8.192-1.024 7.168-2.048 6.144-1.024 3.072-1.024 3.072-2.048 2.048-1.024 2.048-2.048 2.048-1.024 2.048-2.048 2.048-2.048 1.024-2.048 1.024-2.048 1.024-1.024 1.024H727.04l-2.048-1.024-3.072-1.024-1.024-1.024-1.024-1.024-2.048-1.024-1.024-2.048-3.072-3.072-3.072-4.096-2.048-3.072-2.048-4.096-2.048-3.072-3.072-7.168-4.096-7.168H696.32l-1.024 1.024-1.024 2.048-2.048 2.048-2.048 7.168-4.096 9.216-4.096 12.288-4.096 5.12-4.096 6.144-4.096 7.168-5.12 6.144-2.048 3.072-3.072 3.072-6.144 7.168v1.024h1.024l3.072 2.048 14.336 7.168 6.144 3.072 6.144 4.096 5.12 4.096 6.144 4.096 2.048 2.048 2.048 2.048 2.048 3.072 1.024 3.072 1.024 2.048 1.024 3.072 1.024 2.048v7.168l-1.024 2.048-1.024 1.024v2.048l-1.024 2.048-3.072 3.072-2.048 3.072-2.048 2.048-1.024 1.024-4.096 3.072-4.096 2.048-5.12 3.072-5.12 2.048-5.12 2.048-3.072 1.024-3.072 1.024-6.144 1.024-7.168 2.048-6.144 1.024-8.192 1.024h-7.168l-8.192 1.024H588.8l-8.192-1.024-8.192-1.024-8.192-1.024-9.216-1.024-9.216-2.048-8.192-2.048-9.216-2.048-8.192-3.072-9.216-3.072-4.096-1.024-4.096-2.048-3.072-1.024h-9.216l-8.192-1.024h-4.096l-6.144-1.024-3.072 3.072-5.12 3.072-6.144 3.072-7.168 4.096-4.096 2.048-4.096 2.048-10.24 4.096-5.12 1.024-6.144 1.024-7.168 2.048h-5.12l-5.12 1.024h-6.144l-6.144 1.024h-25.6l-14.336-1.024-14.336-1.024-7.168-1.024-7.168-1.024-6.144-1.024-7.168-1.024-6.144-2.048-6.144-2.048-6.144-2.048-5.12-2.048-5.12-2.048-4.096-3.072-4.096-3.072-1.024-1.024-2.048-2.048-2.048-2.048-1.024-2.048-1.024-1.024-1.024-2.048-1.024-4.096-1.024-2.048-1.024-2.048v-2.048l1.024-3.072v-2.048l1.024-2.048v-7.168l1.024-3.072 1.024-3.072 1.024-3.072 2.048-2.048 1.024-1.024 2.048-3.072 2.048-2.048 2.048-1.024 2.048-2.048 3.072-1.024 2.048-1.024 3.072-1.024 3.072-1.024 4.096-1.024 4.096-1.024 3.072-1.024h4.096l5.12-1.024h2.048v-1.024l-1.024-1.024-2.048-1.024-6.144-6.144-4.096-3.072-5.12-4.096-5.12-5.12-5.12-6.144-6.144-7.168-2.048-3.072-3.072-4.096-2.048-5.12-3.072-4.096-3.072-5.12-2.048-5.12-2.048-5.12-2.048-6.144-2.048-5.12-1.024-7.168-1.024-1.024h-2.048l-1.024 1.024v1.024l-1.024 1.024v1.024l-1.024 3.072-3.072 5.12-1.024 3.072-3.072 2.048-2.048 3.072-3.072 4.096-3.072 3.072-3.072 3.072-3.072 3.072-4.096 2.048-3.072 3.072-4.096 1.024-4.096 1.024-5.12 1.024H204.8v-1.024l-1.024-2.048h-1.024l-2.048-4.096-1.024-2.048-1.024-3.072-1.024-4.096-1.024-3.072-1.024-7.168v-28.672l1.024-6.144 1.024-5.12 1.024-6.144 1.024-5.12 2.048-7.168 2.048-6.144 2.048-6.144 3.072-6.144 3.072-6.144 3.072-7.168 4.096-6.144 4.096-6.144 4.096-6.144 5.12-7.168 4.096-5.12 4.096-5.12 5.12-5.12 3.072-3.072 3.072-3.072 4.096-4.096 4.096-3.072 7.168-6.144 6.144-4.096z" p-id="886" fill="#2196f3"></path></svg>