<?xml version="1.0" standalone="no"?><!DOCTYPE svg PUBLIC "-//W3C//DTD SVG 1.1//EN" "http://www.w3.org/Graphics/SVG/1.1/DTD/svg11.dtd"><svg t="1492767623360" class="icon" style="" viewBox="0 0 1024 1024" version="1.1" xmlns="http://www.w3.org/2000/svg" p-id="1927" xmlns:xlink="http://www.w3.org/1999/xlink" width="24" height="24"><defs><style type="text/css"></style></defs><path d="M910.535832 235.39581L829.248071 47.417861c-0.564498-7.902977-13.54796-18.628445-22.015436-7.338478l-41.208379 55.885336c-51.933848-27.660419-110.077178-46.288864-172.736494-53.062845-169.349504-18.063947-327.973539 55.885336-425.067255 180.639471l79.594267 31.047409c81.287762-93.142227 205.477398-145.640573 337.005513-131.528115 47.417861 5.080485 91.448732 18.628445 132.092613 38.385888l-36.127894 48.546858c-8.467475 10.725469 3.951488 21.450937 11.854465 20.32194l203.219404 23.144432c9.031974-1.693495 15.241455-9.596472 14.676957-18.063947zM542.482911 907.148842c-13.54796-0.564498-27.095921-0.564498-40.643881-2.257993-194.187431-20.886439-339.828004-180.074972-350.553473-369.181918l72.820286 6.77398c7.902977-1.128997 14.112459-9.596472 12.983462-18.063947L153.54355 338.699008c-0.564498-7.902977-13.54796-18.628445-22.015435-6.77398L9.031974 503.532525c-7.902977 11.854465 3.951488 21.450937 12.418963 20.32194l49.111356 4.515987c6.77398 233.702315 184.590959 431.841235 423.37376 457.808159 25.402426 2.822492 50.240353 3.38699 74.513782 2.257993l-25.966924-81.287762zM866.504961 861.424476c80.723264-75.07828 136.044101-178.381477 149.027564-296.361631 9.031974-82.981257-4.515987-163.70452-34.998898-235.395811l-71.69129 39.514884c22.579934 57.578831 32.740904 121.367144 25.966924 187.413451-10.16097 94.835722-53.062845 177.816979-116.286659 238.782801l-44.595369-60.965822c-8.467475-11.289967-22.015436-2.822492-22.579934 5.644984l-81.287762 187.977949c-1.693495 8.467475 5.080485 16.370452 12.983462 18.063947l203.219405-22.015435c7.902977 1.128997 22.015436-7.338479 13.54796-18.628446l-33.305403-44.030871z" fill="#888" p-id="1928"></path></svg>