<?xml version="1.0" standalone="no"?><!DOCTYPE svg PUBLIC "-//W3C//DTD SVG 1.1//EN" "http://www.w3.org/Graphics/SVG/1.1/DTD/svg11.dtd"><svg t="1492396712819" class="icon" style="" viewBox="0 0 1024 1024" version="1.1" xmlns="http://www.w3.org/2000/svg" p-id="3051" xmlns:xlink="http://www.w3.org/1999/xlink" width="24" height="24"><defs><style type="text/css"></style></defs><path d="M334.686618 242.430448c0-98.574063 79.890538-178.469718 178.460508-178.469718 98.574063 0 178.464601 79.895655 178.464601 178.469718 0 98.564853-79.890538 178.460508-178.464601 178.460508C414.577157 420.890956 334.686618 340.995301 334.686618 242.430448L334.686618 242.430448 334.686618 242.430448zM751.159962 480.378815l-32.929993 0-185.063903 375.758036 69.215408-346.010525-89.234347-89.234347-89.234347 89.234347 69.219501 346.010525-185.069019-375.758036-32.927947 0c-118.91739 0-118.91739 79.924307-118.91739 178.464601l0 297.440319 713.858404 0L870.076328 658.843416C870.075305 560.303122 870.075305 480.378815 751.159962 480.378815L751.159962 480.378815 751.159962 480.378815zM751.159962 480.378815" fill="#747474" p-id="3052"></path></svg>