<?xml version="1.0" standalone="no"?>
<!DOCTYPE svg PUBLIC "-//W3C//DTD SVG 1.1//EN" "http://www.w3.org/Graphics/SVG/1.1/DTD/svg11.dtd">
<svg width="32" height="32" viewBox="0 0 32 32" version="1.1" xmlns="http://www.w3.org/2000/svg" xmlns:xlink="http://www.w3.org/1999/xlink">
  <defs>
    <style type="text/css">
    <![CDATA[]]>
    </style>
  </defs>
  <g class="transform-group">
    <g transform="scale(0.03125, 0.03125)">
      <path d="M622.592 406.528c8.192 0 15.36 1.024 23.552 1.024C624.64 309.248 519.168 236.544 399.36 236.544c-134.144 0-244.736 91.136-244.736 207.872 0 67.584 36.864 121.856 98.304 164.864l-24.576 73.728 84.992-43.008c30.72 6.144 55.296 12.288 86.016 12.288 7.168 0 15.36 0 22.528-1.024-5.12-16.384-7.168-33.792-7.168-51.2 0-106.496 92.16-193.536 207.872-193.536zM491.52 339.968c18.432 0 30.72 12.288 30.72 30.72s-12.288 30.72-30.72 30.72-36.864-12.288-36.864-30.72 18.432-30.72 36.864-30.72z m-172.032 61.44c-18.432 0-36.864-12.288-36.864-30.72s18.432-30.72 36.864-30.72 30.72 12.288 30.72 30.72-12.288 30.72-30.72 30.72zM845.824 596.992C845.824 499.712 747.52 419.84 637.952 419.84 521.216 419.84 430.08 499.712 430.08 596.992c0 98.304 91.136 177.152 207.872 177.152 24.576 0 49.152-6.144 73.728-12.288L778.24 798.72l-18.432-61.44c49.152-35.84 86.016-84.992 86.016-140.288z m-275.456-30.72c-12.288 0-24.576-12.288-24.576-24.576s12.288-24.576 24.576-24.576c18.432 0 30.72 12.288 30.72 24.576s-12.288 24.576-30.72 24.576z m134.144 0c-12.288 0-24.576-12.288-24.576-24.576s12.288-24.576 24.576-24.576c18.432 0 30.72 12.288 30.72 24.576s-12.288 24.576-30.72 24.576z" fill="#11cd6e"></path>
    </g>
  </g>
</svg>
