<?xml version="1.0" standalone="no"?><!DOCTYPE svg PUBLIC "-//W3C//DTD SVG 1.1//EN" "http://www.w3.org/Graphics/SVG/1.1/DTD/svg11.dtd"><svg t="1493627523704" class="icon" style="" viewBox="0 0 1024 1024" version="1.1" xmlns="http://www.w3.org/2000/svg" p-id="4588" xmlns:xlink="http://www.w3.org/1999/xlink" width="24" height="24"><defs><style type="text/css"></style></defs><path d="M308.73856 119.23456C23.65696 170.15296-71.37024 492.23936 155.392 639.66464 167.82592 647.65696 167.82592 646.7712 149.17376 702.4256L133.18912 750.08512 190.62016 719.29856 248.0512 688.512 278.54336 695.91296C310.51264 703.90528 351.36768 709.5296 378.60096 709.5296L394.88512 709.5296 389.25824 687.91808C344.55808 523.32288 499.08736 360.20736 700.096 360.20736L727.33184 360.20736 721.70752 340.66944C677.59616 186.43456 491.392 86.67136 308.73856 119.23456zM283.87072 263.40352C314.06592 283.83232 315.84256 327.94112 286.83008 346.88768 239.76192 377.67424 184.69888 323.49952 216.37376 277.31712 230.28736 256.59648 263.74144 249.78688 283.87072 263.40352zM526.62016 263.40352C576.35328 296.8576 539.05408 374.12096 483.39712 352.8064 443.13856 337.41312 438.4 282.05568 475.99616 262.2208 490.79808 254.22848 513.88928 254.81984 526.62016 263.40352zM636.44928 385.37216C495.23968 411.12576 397.25312 518.28992 402.87744 641.44128 410.2784 806.33344 603.58912 920.01024 789.20192 869.09184L811.10784 863.17056 857.29024 888.0384C882.74944 901.952 904.064 912.01792 904.65536 910.83264 905.24928 909.35296 900.21632 891.59168 893.70368 871.16544 878.90176 825.5744 878.6048 828.83072 898.43968 814.62272 1121.64864 654.46656 925.67552 332.97408 636.44928 385.37216zM630.82496 518.28992C643.25632 526.5792 649.76896 547.3024 644.4416 562.40128 633.19296 594.66752 584.93952 597.03552 571.91168 565.952 557.10976 530.13248 597.9648 496.97536 630.82496 518.28992zM828.57472 521.8432C848.11264 540.4928 844.85632 572.17024 822.06208 584.01024 787.13088 601.77152 750.42304 566.24896 768.48128 532.20352 780.32128 510.2976 810.81344 504.97024 828.57472 521.8432zM564.3008 841.65632" p-id="4589" fill="#11cd6e"></path></svg>